<svg width="1312" height="700" viewBox="0 0 1312 700" fill="none" xmlns="http://www.w3.org/2000/svg">
<rect width="1312" height="700" fill="#DBDBDB"/>
<rect width="1312" height="700" fill="black" fill-opacity="0.5"/>
<path fill-rule="evenodd" clip-rule="evenodd" d="M576 270H736C747.046 270 756 278.954 756 290V410C756 421.046 747.046 430 736 430H576C564.954 430 556 421.046 556 410V290C556 278.954 564.954 270 576 270ZM647.7 382.2L686.6 356.2C688.696 354.834 689.96 352.502 689.96 350C689.96 347.498 688.696 345.166 686.6 343.8L647.7 317.8C645.403 316.248 642.438 316.089 639.988 317.387C637.539 318.685 636.005 321.228 636 324V376C636.005 378.772 637.539 381.315 639.988 382.613C642.438 383.911 645.403 383.752 647.7 382.2Z" fill="black" fill-opacity="0.15"/>
<path fill-rule="evenodd" clip-rule="evenodd" d="M629.333 350C629.333 335.272 641.272 323.333 656 323.333C663.072 323.333 669.855 326.143 674.856 331.144C679.857 336.145 682.666 342.928 682.666 350C682.666 364.728 670.727 376.667 656 376.667C641.272 376.667 629.333 364.728 629.333 350ZM651.12 361.413L666.666 351.707C667.248 351.334 667.6 350.691 667.6 350C667.6 349.309 667.248 348.666 666.666 348.293L651.066 338.587C650.452 338.199 649.676 338.176 649.039 338.524C648.402 338.873 648.004 339.54 648 340.267V359.733C647.991 360.477 648.396 361.165 649.051 361.517C649.706 361.87 650.503 361.83 651.12 361.413Z" fill="white"/>
</svg>
